<svg width="32" height="32" viewBox="50 7 30 30" fill="none" xmlns="http://www.w3.org/2000/svg">
<path d="M66.6464 9.70485C66.2671 9.63415 65.6987 9.63415 65.3083 9.60855C63.9666 9.54881 62.6175 9.89015 61.4145 10.4692C61.3961 10.4765 61.4109 10.5058 61.428 10.496C62.6286 9.92672 63.9728 9.59392 65.3059 9.66097C65.6913 9.69144 66.2609 9.68779 66.6378 9.76459C68.279 10.0047 69.7398 10.5228 71.0091 11.2469C71.7211 11.7175 72.3054 12.3648 72.7068 13.1084C73.1352 13.8813 73.3525 14.7529 73.4421 15.6258C73.5882 17.3324 73.3378 19.25 72.2293 20.6104C71.0754 22.0062 69.1346 22.2561 67.4161 22.1806C65.6324 22.0599 63.893 21.532 62.0922 21.5515C59.432 21.5442 56.3889 22.1854 54.8397 24.5553C53.3839 27.1384 56.3717 29.8301 58.2965 31.2259C62.0148 33.8273 67.2086 33.9955 71.1098 31.6903C80.875 25.8353 77.9522 11.3116 66.6464 9.70363V9.70485ZM55.6818 27.7809C57.3329 26.4436 59.5572 26.0669 61.633 25.9742C63.7383 25.8852 65.8116 26.418 67.9071 26.4509C71.4326 26.6313 73.8595 25.2245 75.2626 21.9782C75.6935 21.0334 76.02 20.0411 76.3097 19.0403C76.0875 20.0594 75.7892 21.0627 75.4013 22.0379C74.0436 25.4464 71.5456 26.9056 67.8997 26.7532C65.7945 26.6959 63.7444 26.1729 61.638 26.2046C59.5806 26.2461 57.3894 26.5581 55.6831 27.7796L55.6818 27.7809ZM67.9807 30.9455C66.3481 30.9821 64.783 30.4213 63.1884 30.2543C61.5987 30.0946 59.966 30.2397 58.4426 30.7383C60.6866 29.7728 63.2669 29.8362 65.6066 30.4018C69.0634 31.1588 71.8353 30.186 74.1787 27.5773C74.7274 26.9958 75.2221 26.3631 75.6984 25.717C74.0596 28.4318 71.3811 30.9991 67.9807 30.9455V30.9455Z" fill="#0099D5"/>
<path d="M53.793 20.1692C61.5352 18.7503 60.3567 16.0415 61.5315 10.4205C53.4321 11.0593 56.8066 17.8372 53.793 20.1692ZM58.4884 13.6705C57.9581 14.614 57.688 15.6953 57.294 16.7059C57.1589 17.0424 57.0128 17.3886 56.76 17.6556C57.0006 17.3776 57.1295 17.0302 57.2498 16.6889C57.6045 15.649 57.8206 14.575 58.3227 13.5815C59.0923 12.3137 60.2659 11.3848 61.4259 10.4949C60.2769 11.3641 59.1648 12.3929 58.4871 13.6693L58.4884 13.6705Z" fill="#7CC95B"/>
</svg>