<svg width="151" height="34" viewBox="0 0 151 34" fill="none" xmlns="http://www.w3.org/2000/svg">
<path d="M21.882 22.4476H3.52998C3.3569 22.4476 3.21818 22.5963 3.23537 22.7682C3.73008 27.4627 7.42502 30.5554 12.442 30.5554C14.821 30.5554 16.984 29.8472 18.6719 28.4318C19.2341 27.9601 20.0652 28.0003 20.5476 28.5513L20.6188 28.633C21.0939 29.1755 21.0362 29.991 20.5022 30.475C18.4288 32.3511 15.5576 33.3458 12.3537 33.3458C5.0362 33.3458 0.0400391 28.3831 0.0400391 21.4723C0.0400391 14.5615 4.90239 9.6427 11.5066 9.6427C18.1109 9.6427 22.8836 14.4726 22.8836 21.4723C22.8836 21.4748 22.8836 21.4772 22.8836 21.4808C22.8824 22.0184 22.4258 22.4476 21.8832 22.4476H21.882ZM3.53367 20.0997H19.5214C19.6957 20.0997 19.8356 19.9485 19.8148 19.7754C19.2869 15.3856 15.9909 12.3453 11.5054 12.3453C7.01993 12.3453 3.76813 15.3856 3.24028 19.7754C3.21941 19.9473 3.35935 20.0997 3.53367 20.0997V20.0997Z" fill="#7CC95B"/>
<path d="M26.9877 21.342C27.0478 14.7676 32.6307 9.56842 39.251 9.644C42.5445 9.68179 45.3961 10.796 47.3148 12.961C47.8831 13.6035 47.7542 14.5982 47.041 15.0785L46.9993 15.1065C46.4039 15.5088 45.6134 15.3955 45.1224 14.8725C43.5425 13.1902 41.3906 12.3905 39.0766 12.3905C33.9455 12.3905 30.1977 16.0233 30.1977 21.4736C30.1977 26.924 33.9455 30.5567 39.0766 30.5567C41.3906 30.5567 43.5425 29.7887 45.1224 28.1162C45.6146 27.5944 46.4039 27.4835 46.9993 27.8846L47.0324 27.9065C47.7444 28.3868 47.8795 29.384 47.3074 30.0228C45.3556 32.2037 42.4401 33.3483 39.0766 33.3483C32.028 33.3483 26.9226 28.3685 26.9864 21.3444L26.9877 21.342Z" fill="#7CC95B"/>
<path d="M83.6285 0.25C84.5037 0.25 85.212 0.954608 85.212 1.82257V31.5526C85.212 32.4218 84.5025 33.1252 83.6285 33.1252C82.7532 33.1252 82.0449 32.4206 82.0449 31.5526V1.82257C82.0449 0.953389 82.7544 0.25 83.6285 0.25Z" fill="#0099D5"/>
<path d="M93.332 2.465C93.332 1.26912 94.3583 0.25 95.6521 0.25C96.946 0.25 97.9722 1.22524 97.9722 2.42112C97.9722 3.70599 96.9914 4.72512 95.6521 4.72512C94.3128 4.72512 93.332 3.70599 93.332 2.465ZM95.63 9.8195C96.5053 9.8195 97.2136 10.5241 97.2136 11.3921V31.5514C97.2136 32.4206 96.504 33.124 95.63 33.124C94.7548 33.124 94.0465 32.4194 94.0465 31.5514V11.3921C94.0465 10.5229 94.756 9.8195 95.63 9.8195V9.8195Z" fill="#0099D5"/>
<path d="M124.875 11.8126L115.989 31.6489C115.586 32.5461 114.69 33.1252 113.701 33.1252C112.71 33.1252 111.811 32.5449 111.411 31.6452L102.564 11.8102C102.147 10.8739 102.837 9.81946 103.869 9.81946H104.047C104.613 9.81946 105.125 10.151 105.353 10.6655L113.288 28.5854C113.472 29.0011 114.065 29.0024 114.252 28.5867L122.27 10.6606C122.498 10.1486 123.01 9.81946 123.574 9.81946C124.606 9.81946 125.297 10.8752 124.877 11.8126H124.875Z" fill="#0099D5"/>
<path d="M149.038 22.4476H131.04C130.671 22.4476 130.384 22.773 130.437 23.1351C131.082 27.6224 134.713 30.5554 139.598 30.5554C141.977 30.5554 144.14 29.8472 145.828 28.4318C146.39 27.9601 147.221 28.0003 147.704 28.5513L147.775 28.633C148.25 29.1755 148.192 29.991 147.658 30.475C145.585 32.3511 142.714 33.3458 139.51 33.3458C132.192 33.3458 127.196 28.3831 127.196 21.4723C127.196 14.5615 132.06 9.6427 138.663 9.6427C145.266 9.6427 150.04 14.4726 150.04 21.4723C150.04 21.4748 150.04 21.4772 150.04 21.4808C150.039 22.0184 149.582 22.4476 149.039 22.4476H149.038ZM131.05 20.0997H146.318C146.689 20.0997 146.977 19.7705 146.919 19.406C146.255 15.2162 143.021 12.3453 138.662 12.3453C134.303 12.3453 131.112 15.2162 130.448 19.406C130.39 19.7705 130.679 20.0997 131.05 20.0997Z" fill="#0099D5"/>
<path d="M66.6464 9.70485C66.2671 9.63415 65.6987 9.63415 65.3083 9.60855C63.9666 9.54881 62.6175 9.89015 61.4145 10.4692C61.3961 10.4765 61.4109 10.5058 61.428 10.496C62.6286 9.92672 63.9728 9.59392 65.3059 9.66097C65.6913 9.69144 66.2609 9.68779 66.6378 9.76459C68.279 10.0047 69.7398 10.5228 71.0091 11.2469C71.7211 11.7175 72.3054 12.3648 72.7068 13.1084C73.1352 13.8813 73.3525 14.7529 73.4421 15.6258C73.5882 17.3324 73.3378 19.25 72.2293 20.6104C71.0754 22.0062 69.1346 22.2561 67.4161 22.1806C65.6324 22.0599 63.893 21.532 62.0922 21.5515C59.432 21.5442 56.3889 22.1854 54.8397 24.5553C53.3839 27.1384 56.3717 29.8301 58.2965 31.2259C62.0148 33.8273 67.2086 33.9955 71.1098 31.6903C80.875 25.8353 77.9522 11.3116 66.6464 9.70363V9.70485ZM55.6818 27.7809C57.3329 26.4436 59.5572 26.0669 61.633 25.9742C63.7383 25.8852 65.8116 26.418 67.9071 26.4509C71.4326 26.6313 73.8595 25.2245 75.2626 21.9782C75.6935 21.0334 76.02 20.0411 76.3097 19.0403C76.0875 20.0594 75.7892 21.0627 75.4013 22.0379C74.0436 25.4464 71.5456 26.9056 67.8997 26.7532C65.7945 26.6959 63.7444 26.1729 61.638 26.2046C59.5806 26.2461 57.3894 26.5581 55.6831 27.7796L55.6818 27.7809ZM67.9807 30.9455C66.3481 30.9821 64.783 30.4213 63.1884 30.2543C61.5987 30.0946 59.966 30.2397 58.4426 30.7383C60.6866 29.7728 63.2669 29.8362 65.6066 30.4018C69.0634 31.1588 71.8353 30.186 74.1787 27.5773C74.7274 26.9958 75.2221 26.3631 75.6984 25.717C74.0596 28.4318 71.3811 30.9991 67.9807 30.9455V30.9455Z" fill="#0099D5"/>
<path d="M53.793 20.1692C61.5352 18.7503 60.3567 16.0415 61.5315 10.4205C53.4321 11.0593 56.8066 17.8372 53.793 20.1692ZM58.4884 13.6705C57.9581 14.614 57.688 15.6953 57.294 16.7059C57.1589 17.0424 57.0128 17.3886 56.76 17.6556C57.0006 17.3776 57.1295 17.0302 57.2498 16.6889C57.6045 15.649 57.8206 14.575 58.3227 13.5815C59.0923 12.3137 60.2659 11.3848 61.4259 10.4949C60.2769 11.3641 59.1648 12.3929 58.4871 13.6693L58.4884 13.6705Z" fill="#7CC95B"/>
</svg>